<?xml version="1.0" encoding="UTF-8" standalone="no"?>
<!-- Created with Inkscape (http://www.inkscape.org/) -->

<svg
   width="115cm"
   height="40cm"
   viewBox="0 0 1150 400"
   version="1.1"
   id="svg1"
   inkscape:version="1.3.2 (091e20e, 2023-11-25)"
   sodipodi:docname="pocket.svg"
   xmlns:inkscape="http://www.inkscape.org/namespaces/inkscape"
   xmlns:sodipodi="http://sodipodi.sourceforge.net/DTD/sodipodi-0.dtd"
   xmlns:xlink="http://www.w3.org/1999/xlink"
   xmlns="http://www.w3.org/2000/svg"
   xmlns:svg="http://www.w3.org/2000/svg">
  <sodipodi:namedview
     id="namedview1"
     pagecolor="#ffffff"
     bordercolor="#000000"
     borderopacity="0.25"
     inkscape:showpageshadow="2"
     inkscape:pageopacity="0.0"
     inkscape:pagecheckerboard="0"
     inkscape:deskcolor="#d1d1d1"
     inkscape:document-units="mm"
     inkscape:zoom="0.13596342"
     inkscape:cx="1279.756"
     inkscape:cy="820.07353"
     inkscape:window-width="1472"
     inkscape:window-height="818"
     inkscape:window-x="0"
     inkscape:window-y="37"
     inkscape:window-maximized="1"
     inkscape:current-layer="layer1" />
  <defs
     id="defs1">
    <rect
       x="1961.6051"
       y="-148.26085"
       width="467.5919"
       height="129.25305"
       id="rect17" />
    <pattern
       inkscape:collect="always"
       xlink:href="#halftones"
       preserveAspectRatio="xMidYMid"
       id="pattern17"
       patternTransform="matrix(0.99999677,0,0,1,7.9813824e-5,10.515593)" />
    <pattern
       patternUnits="userSpaceOnUse"
       width="10"
       height="10"
       preserveAspectRatio="xMidYMid"
       style="fill:#000000"
       id="halftones"
       x="0"
       y="0"
       inkscape:label="Halftones"
       inkscape:collect="always"
       inkscape:isstock="true">
      <g
         id="fullPattern"
         style="display:inline"
         transform="scale(0.1)">
        <circle
           style="fill-opacity:1;stroke:none;paint-order:markers fill stroke;stop-color:#000000"
           id="circle10"
           cx="50"
           cy="50"
           r="25" />
        <path
           id="circle37"
           style="paint-order:markers fill stroke"
           d="M 25,0 A 25,25 0 0 1 0,25 25,25 0 0 1 -25,0 25,25 0 0 1 0,-25 25,25 0 0 1 25,0 Z" />
        <path
           id="circle39"
           style="paint-order:markers fill stroke"
           d="M 125,0 A 25,25 0 0 1 100,25 25,25 0 0 1 75,0 25,25 0 0 1 100,-25 25,25 0 0 1 125,0 Z" />
        <path
           id="circle43"
           style="paint-order:markers fill stroke"
           d="M 25,100 A 25,25 0 0 1 0,125 25,25 0 0 1 -25,100 25,25 0 0 1 0,75 25,25 0 0 1 25,100 Z" />
        <path
           id="circle45"
           style="paint-order:markers fill stroke"
           d="m 125,100 a 25,25 0 0 1 -25,25 25,25 0 0 1 -25,-25 25,25 0 0 1 25,-25 25,25 0 0 1 25,25 z" />
      </g>
    </pattern>
  </defs>
  <g
     inkscape:label="Layer 1"
     inkscape:groupmode="layer"
     id="layer1">
    <path
       id="rect1"
       style="fill:url(#pattern17);fill-opacity:1;stroke:#7c0000;stroke-width:1.02975;stroke-opacity:1"
       d="m 24.993098,70.515593 340.005802,-40 419.99865,-10 340.00575,40 V 290.51559 H 1024.9968 V 390.51894 H 884.99722 V 290.51559 h -99.99967 -99.99968 v 100 l -219.99929,0.003 v -100.003 H 364.9989 264.99922 V 390.51894 H 124.99968 V 290.51559 H 24.993098 Z"
       sodipodi:nodetypes="ccccccccccccccccccccc" />
    <text
       xml:space="preserve"
       transform="scale(0.26458333)"
       id="text17"
       style="fill:none;stroke:#7c0000;stroke-opacity:1;white-space:pre;shape-inside:url(#rect17)" />
    <text
       xml:space="preserve"
       style="font-size:6.35px;fill:none;stroke:#7c0000;stroke-width:0.264583;stroke-opacity:1"
       x="511.42056"
       y="13.622395"
       id="text18"><tspan
         id="tspan18"
         style="font-size:6.35px;stroke-width:0.264583"
         x="511.42056"
         y="13.622395"
         sodipodi:role="line">minor assymetry to make room for pole holder</tspan></text>
    <text
       xml:space="preserve"
       style="font-size:6.35px;fill:none;stroke:#7c0000;stroke-width:0.264583;stroke-opacity:1"
       x="95.314369"
       y="26.279047"
       id="text18-3"><tspan
         id="tspan18-2"
         style="font-size:6.35px;stroke-width:0.264583"
         x="95.314369"
         y="26.279047"
         sodipodi:role="line">bind top seam in stretchy fabric</tspan></text>
    <text
       xml:space="preserve"
       style="font-size:6.35px;fill:none;stroke:#7c0000;stroke-width:0.264583;stroke-opacity:1"
       x="53.605324"
       y="307.89771"
       id="text18-3-9"><tspan
         id="tspan18-2-2"
         style="font-size:6.35px;stroke-width:0.264583"
         x="53.605324"
         y="307.89771"
         sodipodi:role="line">sew to form corner</tspan></text>
    <text
       xml:space="preserve"
       style="font-size:6.35px;fill:none;stroke:#7c0000;stroke-width:0.264583;stroke-opacity:1"
       x="280.27106"
       y="309.0289"
       id="text18-3-9-3"><tspan
         id="tspan18-2-2-1"
         style="font-size:6.35px;stroke-width:0.264583"
         x="280.27106"
         y="309.0289"
         sodipodi:role="line">sew to form corner</tspan></text>
    <text
       xml:space="preserve"
       style="font-size:6.35px;fill:none;stroke:#7c0000;stroke-width:0.264583;stroke-opacity:1"
       x="397.80334"
       y="307.84781"
       id="text18-3-9-3-8"><tspan
         id="tspan18-2-2-1-4"
         style="font-size:6.35px;stroke-width:0.264583"
         x="397.80334"
         y="307.84781"
         sodipodi:role="line">sew to form corner</tspan></text>
    <text
       xml:space="preserve"
       style="font-size:6.35px;fill:none;stroke:#7c0000;stroke-width:0.264583;stroke-opacity:1"
       x="817.1239"
       y="306.79041"
       id="text18-3-9-3-5"><tspan
         id="tspan18-2-2-1-2"
         style="font-size:6.35px;stroke-width:0.264583"
         x="817.1239"
         y="306.79041"
         sodipodi:role="line">sew to form corner</tspan></text>
    <text
       xml:space="preserve"
       style="font-size:6.35px;fill:none;stroke:#7c0000;stroke-width:0.264583;stroke-opacity:1"
       x="1037.173"
       y="306.90851"
       id="text18-3-9-3-6"><tspan
         id="tspan18-2-2-1-0"
         style="font-size:6.35px;stroke-width:0.264583"
         x="1037.173"
         y="306.90851"
         sodipodi:role="line">sew to form corner</tspan></text>
    <text
       xml:space="preserve"
       style="font-size:6.35px;fill:none;stroke:#7c0000;stroke-width:0.264583;stroke-opacity:1"
       x="689.29541"
       y="307.40656"
       id="text18-3-9-3-80"><tspan
         id="tspan18-2-2-1-45"
         style="font-size:6.35px;stroke-width:0.264583"
         x="689.29541"
         y="307.40656"
         sodipodi:role="line">sew to form corner</tspan></text>
  </g>
</svg>
